<svg width="20" height="20" viewBox="0 0 20 20" fill="none" xmlns="http://www.w3.org/2000/svg">
<path d="M10.002 0C15.52 0 20 4.48 20 9.998C20 15.515 15.52 19.995 10.002 19.995C4.485 19.995 0.00500488 15.515 0.00500488 9.998C0.00500488 4.48 4.485 0 10.002 0ZM10.002 1.5C5.312 1.5 1.505 5.308 1.505 9.998C1.505 14.688 5.312 18.495 10.002 18.495C14.692 18.495 18.5 14.688 18.5 9.998C18.5 5.308 14.692 1.5 10.002 1.5ZM9.255 9.25H5.755C5.341 9.25 5.005 9.586 5.005 10C5.005 10.414 5.341 10.75 5.755 10.75H9.255V14.25C9.255 14.664 9.59101 15 10.005 15C10.419 15 10.755 14.664 10.755 14.25V10.75H14.255C14.669 10.75 15.005 10.414 15.005 10C15.005 9.586 14.669 9.25 14.255 9.25H10.755V5.75C10.755 5.336 10.419 5 10.005 5C9.59101 5 9.255 5.336 9.255 5.75V9.25Z" fill="black"/>
</svg>
