<svg width="25" height="24" viewBox="0 0 25 24" fill="none" xmlns="http://www.w3.org/2000/svg">
<path d="M3.3125 6H5.3125H21.3125" stroke="#A30D11" stroke-width="2" stroke-linecap="round" stroke-linejoin="round"/>
<path d="M8.3125 6V4C8.3125 3.46957 8.52321 2.96086 8.89829 2.58579C9.27336 2.21071 9.78207 2 10.3125 2H14.3125C14.8429 2 15.3516 2.21071 15.7267 2.58579C16.1018 2.96086 16.3125 3.46957 16.3125 4V6M19.3125 6V20C19.3125 20.5304 19.1018 21.0391 18.7267 21.4142C18.3516 21.7893 17.8429 22 17.3125 22H7.3125C6.78207 22 6.27336 21.7893 5.89829 21.4142C5.52321 21.0391 5.3125 20.5304 5.3125 20V6H19.3125Z" stroke="#A30D11" stroke-width="2" stroke-linecap="round" stroke-linejoin="round"/>
<path d="M10.3125 11V17" stroke="#A30D11" stroke-width="2" stroke-linecap="round" stroke-linejoin="round"/>
<path d="M14.3125 11V17" stroke="#A30D11" stroke-width="2" stroke-linecap="round" stroke-linejoin="round"/>
</svg>
