<svg width="25" height="24" viewBox="0 0 25 24" fill="none" xmlns="http://www.w3.org/2000/svg">
<path d="M11.3125 4H4.3125C3.78207 4 3.27336 4.21071 2.89829 4.58579C2.52321 4.96086 2.3125 5.46957 2.3125 6V20C2.3125 20.5304 2.52321 21.0391 2.89829 21.4142C3.27336 21.7893 3.78207 22 4.3125 22H18.3125C18.8429 22 19.3516 21.7893 19.7267 21.4142C20.1018 21.0391 20.3125 20.5304 20.3125 20V13" stroke="#624DE3" stroke-width="2" stroke-linecap="round" stroke-linejoin="round"/>
<path d="M18.8125 2.49998C19.2103 2.10216 19.7499 1.87866 20.3125 1.87866C20.8751 1.87866 21.4147 2.10216 21.8125 2.49998C22.2103 2.89781 22.4338 3.43737 22.4338 3.99998C22.4338 4.56259 22.2103 5.10216 21.8125 5.49998L12.3125 15L8.3125 16L9.3125 12L18.8125 2.49998Z" stroke="#624DE3" stroke-width="2" stroke-linecap="round" stroke-linejoin="round"/>
</svg>
